<svg width="33" height="34" viewBox="0 0 33 34" fill="none" xmlns="http://www.w3.org/2000/svg">
<path d="M33 17.2108C33 15.8265 32.8877 14.8163 32.6446 13.7687H16.8367V20.0169H26.1156C25.9286 21.5697 24.9184 23.9081 22.6734 25.4795L22.642 25.6886L27.6401 29.5606L27.9864 29.5952C31.1666 26.6581 33 22.3366 33 17.2108Z" fill="#4285F4"/>
<path d="M16.8367 33.6734C21.3826 33.6734 25.1989 32.1767 27.9864 29.5952L22.6734 25.4795C21.2517 26.471 19.3435 27.1631 16.8367 27.1631C12.3844 27.1631 8.6055 24.2261 7.25843 20.1666L7.06098 20.1834L1.86384 24.2055L1.79587 24.3944C4.56455 29.8944 10.2516 33.6734 16.8367 33.6734Z" fill="#34A853"/>
<path d="M7.25843 20.1666C6.903 19.119 6.69729 17.9965 6.69729 16.8367C6.69729 15.6768 6.903 14.5543 7.23973 13.5067L7.23032 13.2836L1.96805 9.1969L1.79588 9.27879C0.654769 11.5611 0 14.1241 0 16.8367C0 19.5493 0.654769 22.1121 1.79588 24.3945L7.25843 20.1666Z" fill="#FBBC05"/>
<path d="M16.8367 6.51016C19.9982 6.51016 22.1309 7.8758 23.3469 9.01703L28.0986 4.37755C25.1803 1.66497 21.3826 0 16.8367 0C10.2516 0 4.56455 3.77888 1.79587 9.27884L7.23973 13.5068C8.6055 9.44727 12.3844 6.51016 16.8367 6.51016Z" fill="#EB4335"/>
</svg>
