<svg width="33" height="33" viewBox="0 0 33 33" fill="none" xmlns="http://www.w3.org/2000/svg">
<path d="M16.5 33C25.6127 33 33 25.6127 33 16.5C33 7.3873 25.6127 0 16.5 0C7.3873 0 0 7.3873 0 16.5C0 25.6127 7.3873 33 16.5 33Z" fill="#FF4500"/>
<path d="M27.4764 16.6573C27.4764 15.3197 26.3947 14.2574 25.0765 14.2574C24.4275 14.2574 23.8372 14.513 23.4045 14.9262C21.7523 13.7459 19.49 12.9789 16.9721 12.8806L18.0736 7.72674L21.6537 8.4938C21.6933 9.39874 22.4406 10.1266 23.3653 10.1266C24.3095 10.1266 25.0765 9.3595 25.0765 8.41497C25.0765 7.4708 24.3095 6.70374 23.3653 6.70374C22.6965 6.70374 22.1062 7.09717 21.8308 7.6677L17.8378 6.8218C17.7197 6.802 17.6017 6.8218 17.5228 6.88084C17.4246 6.93987 17.3655 7.03814 17.3461 7.1562L16.1262 12.9C13.5691 12.9789 11.2675 13.7459 9.59548 14.946C9.16282 14.5328 8.57248 14.2772 7.92348 14.2772C6.58588 14.2772 5.52365 15.3589 5.52365 16.6771C5.52365 17.6605 6.11362 18.4866 6.94008 18.8606C6.90048 19.0963 6.88105 19.3325 6.88105 19.5884C6.88105 23.2862 11.189 26.2962 16.5002 26.2962C21.8114 26.2962 26.1193 23.306 26.1193 19.5884C26.1193 19.3523 26.0995 19.0963 26.0603 18.8606C26.8864 18.4866 27.4764 17.6407 27.4764 16.6573ZM10.9921 18.3685C10.9921 17.4243 11.7592 16.6573 12.7037 16.6573C13.6479 16.6573 14.415 17.4243 14.415 18.3685C14.415 19.3127 13.6479 20.0801 12.7037 20.0801C11.7592 20.0995 10.9921 19.3127 10.9921 18.3685ZM20.572 22.9126C19.3917 24.0929 17.1492 24.1717 16.5002 24.1717C15.8314 24.1717 13.5889 24.0731 12.428 22.9126C12.2513 22.7355 12.2513 22.4601 12.428 22.283C12.6051 22.1063 12.8805 22.1063 13.0576 22.283C13.8052 23.0307 15.3789 23.2862 16.5002 23.2862C17.6215 23.2862 19.2146 23.0307 19.9425 22.283C20.1196 22.1063 20.3949 22.1063 20.572 22.283C20.7293 22.4601 20.7293 22.7355 20.572 22.9126ZM20.2571 20.0995C19.3129 20.0995 18.5458 19.3325 18.5458 18.3883C18.5458 17.4441 19.3129 16.6771 20.2571 16.6771C21.2016 16.6771 21.9687 17.4441 21.9687 18.3883C21.9687 19.3127 21.2016 20.0995 20.2571 20.0995Z" fill="white"/>
</svg>
