<svg width="33" height="33" viewBox="0 0 33 33" fill="none" xmlns="http://www.w3.org/2000/svg">
<path d="M5.02003 4.62497C11.54 -1.69123 21.9651 -1.52144 28.2813 5.03247C28.9944 4.08164 29.6057 3.02894 30.0471 1.94228C32.1186 8.25848 33.375 13.5559 32.8996 17.6649C32.6619 21.1286 31.3036 24.4565 29.0623 27.1052C23.2216 34.0327 12.8304 34.9156 5.90294 29.0748L5.77042 28.9569L5.76337 28.9522C5.74167 28.9371 5.72027 28.9214 5.69919 28.905C5.63596 28.8558 5.57855 28.8023 5.52694 28.7451L5.50835 28.7239L5.2917 28.5315C5.0804 28.3503 4.86911 28.1692 4.68166 27.9643L4.61254 27.8862C-1.70366 21.3663 -1.49992 10.9412 5.02003 4.62497ZM7.46501 26.7317C6.85377 26.2563 5.97086 26.3242 5.49545 26.9354C5.07741 27.4729 5.07947 28.2204 5.50162 28.7162L5.50835 28.7239L5.77042 28.9569L5.79613 28.9744C6.38969 29.3647 7.18829 29.284 7.64381 28.7324L7.66876 28.7012C8.14418 28.09 8.0423 27.2071 7.46501 26.7317ZM29.8773 3.64019C28.1794 7.20578 23.9686 9.92243 20.3351 10.7714C16.9054 11.5864 13.917 10.9072 10.7589 12.1297C3.55984 14.8803 3.69567 23.4377 7.63481 25.3733L7.87251 25.5092C7.87251 25.5092 10.7179 24.9434 13.5316 24.1963L13.7726 24.1319C14.8965 23.829 16.0021 23.4989 16.9054 23.1661C21.5916 21.4342 26.7532 17.1555 28.4511 12.1976C27.5682 17.3592 23.1197 22.3511 18.6712 24.6263C16.2941 25.8488 14.4604 26.1204 10.5552 27.4787C10.0798 27.6485 9.70625 27.8183 9.70625 27.8183C9.7539 27.8118 9.80155 27.8053 9.84909 27.7991L9.94399 27.7868L10.0384 27.7749C10.9008 27.668 11.6758 27.6146 11.6758 27.6146C17.211 27.3429 25.9042 29.1767 29.9453 23.7773C34.0881 18.2761 31.779 9.3791 29.8773 3.64019Z" fill="#6DB33F"/>
<path d="M7.46501 26.7317C8.0423 27.2071 8.14418 28.09 7.66876 28.7013C7.19335 29.3125 6.31044 29.3804 5.69919 28.905C5.08795 28.4296 5.02003 27.5467 5.49545 26.9354C5.97086 26.3242 6.85377 26.2563 7.46501 26.7317ZM29.8773 3.6402C31.779 9.37911 34.0881 18.2761 29.9453 23.7773C25.9042 29.1767 17.211 27.3429 11.6758 27.6146C11.6758 27.6146 10.9008 27.668 10.0384 27.7749L9.94398 27.7868C9.86508 27.7969 9.78567 27.8074 9.70625 27.8183C9.70625 27.8183 10.0798 27.6486 10.5552 27.4788C14.4604 26.1204 16.2941 25.8488 18.6712 24.6263C23.1197 22.3511 27.5682 17.3593 28.4511 12.1976C26.7532 17.1555 21.5916 21.4342 16.9054 23.1661C13.6793 24.3546 7.87251 25.5092 7.87251 25.5092L7.63481 25.3734C3.69567 23.4378 3.55984 14.8803 10.7589 12.1297C13.917 10.9072 16.9054 11.5864 20.3351 10.7714C23.9686 9.92244 28.1794 7.20579 29.8773 3.6402Z" fill="white"/>
</svg>
