<svg width="33" height="33" viewBox="0 0 33 33" fill="none" xmlns="http://www.w3.org/2000/svg">
<path d="M16.5001 0C7.38856 0 0 7.38719 0 16.5001C0 23.7903 4.72779 29.9753 11.2838 32.1571C12.1084 32.3098 12.4112 31.7991 12.4112 31.3633C12.4112 30.9699 12.3959 29.6701 12.3888 28.2913C7.79841 29.2895 6.82979 26.3445 6.82979 26.3445C6.07921 24.4373 4.99775 23.9302 4.99775 23.9302C3.50069 22.9061 5.11059 22.9272 5.11059 22.9272C6.76749 23.0436 7.63993 24.6275 7.63993 24.6275C9.11158 27.15 11.4999 26.4208 12.4415 25.9992C12.5896 24.9327 13.0172 24.2048 13.4891 23.7928C9.82418 23.3756 5.97156 21.9607 5.97156 15.6384C5.97156 13.8369 6.61612 12.365 7.67163 11.2095C7.50031 10.7939 6.93553 9.11568 7.83147 6.84291C7.83147 6.84291 9.21705 6.39944 12.3702 8.53423C13.6864 8.16864 15.0979 7.9853 16.5001 7.97902C17.9024 7.9853 19.315 8.16864 20.6336 8.53423C23.783 6.39944 25.1666 6.84291 25.1666 6.84291C26.0647 9.11568 25.4997 10.7939 25.3284 11.2095C26.3863 12.365 27.0265 13.8369 27.0265 15.6384C27.0265 21.9758 23.1665 23.3712 19.4923 23.7797C20.0842 24.2917 20.6115 25.2959 20.6115 26.8353C20.6115 29.043 20.5924 30.8199 20.5924 31.3633C20.5924 31.8024 20.8894 32.3169 21.7258 32.1549C28.2782 29.9706 33 23.7879 33 16.5001C33 7.38719 25.6125 0 16.5001 0ZM6.17984 23.5048C6.1435 23.5868 6.01453 23.6114 5.89704 23.5551C5.77736 23.5012 5.71015 23.3895 5.74895 23.3072C5.78447 23.2228 5.91371 23.1993 6.03311 23.2559C6.15306 23.3097 6.22137 23.4225 6.17984 23.5048ZM6.99146 24.229C6.91277 24.3019 6.75894 24.2681 6.65456 24.1528C6.54663 24.0377 6.52641 23.8839 6.6062 23.8099C6.68735 23.7369 6.83654 23.7711 6.94474 23.8861C7.05267 24.0025 7.0737 24.1552 6.99146 24.229ZM7.54827 25.1556C7.44717 25.2258 7.28186 25.16 7.17967 25.0132C7.07857 24.8665 7.07857 24.6905 7.18186 24.62C7.28432 24.5495 7.44717 24.6129 7.55072 24.7586C7.65155 24.9078 7.65155 25.0837 7.54827 25.1556ZM8.48994 26.2287C8.3995 26.3284 8.20687 26.3017 8.06588 26.1656C7.92161 26.0325 7.88145 25.8437 7.97216 25.744C8.06369 25.644 8.25742 25.6721 8.3995 25.8071C8.54268 25.9399 8.58639 26.1301 8.48994 26.2287ZM9.70696 26.591C9.66707 26.7202 9.48155 26.779 9.29465 26.724C9.10803 26.6675 8.9859 26.5161 9.0236 26.3855C9.0624 26.2554 9.24875 26.1942 9.43701 26.253C9.62335 26.3093 9.74576 26.4596 9.70696 26.591ZM11.092 26.7446C11.0966 26.8807 10.9382 26.9936 10.742 26.996C10.5447 27.0004 10.3851 26.8903 10.3829 26.7564C10.3829 26.619 10.5379 26.5072 10.7351 26.5039C10.9313 26.5001 11.092 26.6094 11.092 26.7446ZM12.4526 26.6925C12.4761 26.8253 12.3398 26.9616 12.145 26.998C11.9534 27.0329 11.7761 26.951 11.7518 26.8193C11.728 26.6832 11.8668 26.5469 12.0581 26.5116C12.2532 26.4777 12.4278 26.5575 12.4526 26.6925Z" fill="#161614"/>
</svg>
